<svg width="21" height="20" viewBox="0 0 21 20" fill="none" xmlns="http://www.w3.org/2000/svg">
<path fill-rule="evenodd" clip-rule="evenodd" d="M10.5 2.00049C8.8971 2.00049 7.59766 3.29993 7.59766 4.90287C7.59766 6.50581 8.8971 7.80525 10.5 7.80525C12.103 7.80525 13.4024 6.50581 13.4024 4.90287C13.4024 3.29993 12.103 2.00049 10.5 2.00049ZM5.59766 4.90287C5.59766 2.19536 7.79253 0.000488281 10.5 0.000488281C13.2075 0.000488281 15.4024 2.19536 15.4024 4.90287C15.4024 7.61038 13.2075 9.80525 10.5 9.80525C7.79253 9.80525 5.59766 7.61038 5.59766 4.90287Z" fill="#40BFFF"/>
<path fill-rule="evenodd" clip-rule="evenodd" d="M8.01784 13.3901C4.97035 13.3901 2.5 15.8605 2.5 18.908V18.9991C2.5 19.5514 2.05228 19.9991 1.5 19.9991C0.947715 19.9991 0.5 19.5514 0.5 18.9991V18.908C0.5 14.7559 3.86578 11.3901 8.01784 11.3901H12.9822C17.1342 11.3901 20.5 14.7559 20.5 18.908V18.9991C20.5 19.5514 20.0523 19.9991 19.5 19.9991C18.9477 19.9991 18.5 19.5514 18.5 18.9991V18.908C18.5 15.8605 16.0296 13.3901 12.9822 13.3901H8.01784Z" fill="#40BFFF"/>
</svg>
